HIERARCHY
ROOT Hips
{
 OFFSET 0.000000 0.000000 0.000000
 CHANNELS 6 Xposition Yposition Zposition Yrotation Xrotation Zrotation
 JOINT Chest
 {
  OFFSET 0.000000 9.585900 0.002600
  CHANNELS 3 Yrotation Xrotation Zrotation
  JOINT Chest2
  {
   OFFSET 0.000000 9.601200 -0.005300
   CHANNELS 3 Yrotation Xrotation Zrotation
   JOINT Chest3
   {
    OFFSET 0.000000 9.561800 0.000000
    CHANNELS 3 Yrotation Xrotation Zrotation
    JOINT Chest4
    {
     OFFSET 0.000000 9.552100 0.000000
     CHANNELS 3 Yrotation Xrotation Zrotation
     JOINT Neck
     {
      OFFSET 0.000000 14.453000 0.000000
      CHANNELS 3 Yrotation Xrotation Zrotation
      JOINT Head
      {
       OFFSET 0.000000 8.936500 -0.011300
       CHANNELS 3 Yrotation Xrotation Zrotation
       End Site
       {
        OFFSET 0.000000 17.073600 -0.006000
       }
      }
     }
     JOINT RightCollar
     {
      OFFSET -2.921100 9.558500 0.000000
      CHANNELS 3 Yrotation Xrotation Zrotation
      JOINT RightShoulder
      {
       OFFSET -13.519700 0.000000 0.000000
       CHANNELS 3 Yrotation Xrotation Zrotation
       JOINT RightElbow
       {
        OFFSET 0.000000 -29.696600 0.000000
        CHANNELS 3 Yrotation Xrotation Zrotation
        JOINT RightWrist
        {
         OFFSET 0.000000 -24.004700 0.000000
         CHANNELS 3 Yrotation Xrotation Zrotation
         End Site
         {
          OFFSET 0.000000 -17.728500 0.000000
         }
        }
       }
      }
     }
     JOINT LeftCollar
     {
      OFFSET 2.921100 9.558500 0.000000
      CHANNELS 3 Yrotation Xrotation Zrotation
      JOINT LeftShoulder
      {
       OFFSET 13.519700 0.000000 0.000000
       CHANNELS 3 Yrotation Xrotation Zrotation
       JOINT LeftElbow
       {
        OFFSET 0.000000 -29.696600 0.000000
        CHANNELS 3 Yrotation Xrotation Zrotation
        JOINT LeftWrist
        {
         OFFSET 0.000000 -24.004700 0.000000
         CHANNELS 3 Yrotation Xrotation Zrotation
         End Site
         {
          OFFSET 0.000000 -17.728500 0.000000
         }
        }
       }
      }
     }
    }
   }
  }
 }
 JOINT RightHip
 {
  OFFSET -7.771700 -0.012900 -0.001300
  CHANNELS 3 Yrotation Xrotation Zrotation
  JOINT RightKnee
  {
   OFFSET 0.000000 -40.869800 0.001200
   CHANNELS 3 Yrotation Xrotation Zrotation
   JOINT RightAnkle
   {
    OFFSET 0.000000 -39.717900 0.002100
    CHANNELS 3 Yrotation Xrotation Zrotation
    JOINT RightToe
    {
     OFFSET 0.000000 -4.965400 11.033500
     CHANNELS 3 Yrotation Xrotation Zrotation
     End Site
     {
      OFFSET 0.000000 -1.423100 5.872300
     }
    }
   }
  }
 }
 JOINT LeftHip
 {
  OFFSET 7.771700 -0.012900 -0.001300
  CHANNELS 3 Yrotation Xrotation Zrotation
  JOINT LeftKnee
  {
   OFFSET 0.000000 -40.869800 0.001200
   CHANNELS 3 Yrotation Xrotation Zrotation
   JOINT LeftAnkle
   {
    OFFSET 0.000000 -39.717900 0.002100
    CHANNELS 3 Yrotation Xrotation Zrotation
    JOINT LeftToe
    {
     OFFSET 0.000000 -4.965400 11.033500
     CHANNELS 3 Yrotation Xrotation Zrotation
     End Site
     {
      OFFSET 0.000000 -1.423100 5.872300
     }
    }
   }
  }
 }
}
MOTION
Frames: 12
Frame Time: 0.008333
0.000000 85.388000 0.000000 0.000000 -5.767877 0.000000 0.000000 11.653817 0.000000 0.000000 -5.885947 0.000000 0.000000 -0.000000 0.000000 0.000000 -0.000000 0.000000 0.000000 12.528835 0.000000 0.000000 0.711642 0.000000 0.000000 -0.000000 0.000000 0.000000 0.000000 -90.000000 0.000000 -2.309062 0.000000 0.000000 2.309062 0.000000 0.000000 -0.000000 0.000000 0.000000 -0.000000 90.000000 0.000000 -2.309062 0.000000 0.000000 2.309062 0.000000 0.000000 8.520406 0.000000 0.000000 1.905762 0.000000 -0.000000 -4.658285 0.000000 0.000000 -0.000000 0.000000 0.000000 8.520406 0.000000 0.000000 1.905762 0.000000 -0.000000 -4.658285 0.000000 0.000000 -0.000000 0.000000
-232.002508 60.611923 -71.954890 158.497064 -22.355281 5.461272 2.652138 18.087923 3.994653 0.223290 2.178651 0.438364 0.394364 3.486995 0.791077 2.175046 15.887968 3.740104 6.927664 16.323567 -2.420054 8.166062 -8.279596 -4.231383 6.674952 7.412970 -4.257103 11.266809 -28.957211 -19.779132 129.201739 -79.010067 -124.204554 3.907435 -5.092981 -41.312696 -9.627207 -1.035716 -7.451363 -6.246673 -13.456277 15.917104 -69.993200 -50.464824 54.098703 -10.455312 12.244449 16.836377 -0.140329 -47.605174 7.362722 -31.714558 66.966788 -35.257318 0.077735 -2.739919 -0.564574 0.539855 -0.621635 0.231729 12.692141 -44.756128 -3.998774 25.134706 63.417728 24.682657 -21.461303 -14.144064 0.076082 -0.200348 0.435620 0.003142
-232.009414 60.608452 -71.962188 158.539526 -22.255131 5.419706 2.631358 18.107537 3.954231 0.223394 2.100425 0.466208 0.375594 3.494033 0.761716 2.142157 15.828282 3.737407 6.883366 16.340270 -2.495594 8.105101 -8.256706 -4.308917 6.702805 7.235502 -4.250348 11.569756 -28.682900 -19.665789 122.768237 -79.945809 -117.826674 3.857530 -4.731212 -41.136158 -9.620561 -1.200596 -7.465206 -6.333871 -13.442086 15.947910 -69.895056 -50.156130 53.960455 -10.526685 12.330764 16.741270 -0.199282 -47.702954 7.387122 -31.696610 66.974314 -35.231875 0.084680 -2.749001 -0.558988 0.533846 -0.618318 0.224381 12.712463 -44.882002 -4.012556 25.127435 63.462942 24.665137 -21.468750 -14.133993 0.092889 -0.193930 0.424980 0.001075
-232.015362 60.605966 -71.975888 158.608071 -22.174761 5.363259 2.584587 18.068289 3.946853 0.216939 2.099299 0.455193 0.371839 3.467920 0.768376 2.143355 15.801577 3.754052 6.776626 16.355715 -2.601440 8.039011 -8.222845 -4.379743 6.678737 7.043375 -4.269954 11.911090 -28.412635 -19.561545 114.719365 -80.719056 -109.887709 3.819906 -4.202120 -40.936382 -9.664507 -1.389648 -7.505907 -6.430887 -13.425177 15.986011 -69.761376 -49.842499 53.785972 -10.596566 12.400607 16.644664 -0.281072 -47.778626 7.398198 -31.678133 67.003483 -35.177354 0.084613 -2.792304 -0.581550 0.537368 -0.602325 0.228155 12.689844 -44.988738 -4.016356 25.123979 63.499503 24.657690 -21.456330 -14.126264 0.064150 -0.218975 0.417622 0.028468
-232.024305 60.604656 -71.997102 158.709419 -22.117329 5.317545 2.498081 18.023389 3.933215 0.215132 2.092757 0.454014 0.372924 3.456644 0.777655 2.058690 15.743912 3.674153 6.741783 16.412822 -2.646967 7.966316 -8.180628 -4.441814 6.723848 6.889234 -4.230950 12.275072 -28.148698 -19.465808 105.269406 -81.273328 -100.582218 3.796720 -3.421442 -40.663873 -9.647757 -1.534252 -7.504348 -6.543025 -13.402917 16.029459 -69.596145 -49.522852 53.578238 -10.659921 12.459355 16.550310 -0.362626 -47.838502 7.361150 -31.703822 67.051057 -35.140063 0.002617 -2.799935 -0.651642 0.628548 -0.639967 0.270281 12.624550 -45.060804 -4.035248 25.128145 63.513804 24.660580 -21.484723 -14.176987 0.060392 -0.206652 0.467943 0.034447
-232.029731 60.599189 -72.012060 158.728076 -22.006710 5.263537 2.504119 17.928670 3.957682 0.213519 2.086179 0.452873 0.361990 3.448341 0.753595 2.025971 15.679906 3.654421 6.671196 16.466078 -2.704826 7.887390 -8.134145 -4.495810 6.744062 6.734245 -4.204760 12.638616 -27.888794 -19.383868 94.871722 -81.568850 -90.341749 3.796045 -2.337363 -40.278270 -9.653682 -1.696563 -7.518106 -6.671641 -13.374454 16.074201 -69.401896 -49.197875 53.335961 -10.714544 12.508288 16.462807 -0.407346 -47.936944 7.384366 -31.645291 67.065592 -35.055246 0.106350 -2.874368 -0.618212 0.529864 -0.571397 0.227426 12.662548 -45.203665 -4.036978 25.121392 63.572536 24.657830 -21.515328 -14.127278 0.094656 -0.216128 0.404490 0.032060
-232.033910 60.595896 -72.036174 158.756943 -21.943301 5.216279 2.491354 17.887064 3.953033 0.198675 2.076853 0.414058 0.369977 3.421700 0.785837 2.009038 15.628581 3.651751 6.583570 16.511189 -2.768271 7.804057 -8.087860 -4.542806 6.756930 6.575441 -4.184087 12.975580 -27.627065 -19.321007 84.166873 -81.577863 -79.792689 3.814500 -0.962004 -39.751499 -9.660849 -1.874511 -7.540830 -6.822934 -13.344289 16.114530 -69.175109 -48.866745 53.060734 -10.767158 12.543613 16.376512 -0.459453 -47.989880 7.388190 -31.647027 67.092519 -35.012857 0.150886 -2.923506 -0.630676 0.509296 -0.552153 0.220106 12.778425 -45.326064 -4.087191 25.095936 63.703022 24.667007 -21.507488 -14.084285 0.165658 -0.279519 0.324261 0.004968
-232.036127 60.592106 -72.062646 158.863375 -21.894317 5.135009 2.398725 17.857860 3.932363 0.202658 2.047177 0.437633 0.365129 3.405532 0.780552 1.995094 15.574755 3.647110 6.494963 16.553065 -2.825578 7.718070 -8.045325 -4.582804 6.776942 6.419772 -4.158000 13.251307 -27.364088 -19.274815 73.873504 -81.297278 -69.623994 3.832294 0.624164 -39.077240 -9.653616 -2.055242 -7.562536 -7.003136 -13.315943 16.144615 -68.915647 -48.527209 52.757045 -10.820412 12.565752 16.286764 -0.597096 -48.035476 7.405365 -31.754531 67.133705 -35.049014 0.173981 -3.007171 -0.674070 0.534697 -0.533302 0.223117 12.738596 -45.418313 -4.095994 25.073662 63.757554 24.682607 -21.528034 -14.064585 0.139347 -0.294576 0.298704 0.023934
-232.036331 60.586779 -72.088606 158.949305 -21.834761 5.052079 2.333109 17.802337 3.944281 0.203972 2.031347 0.450496 0.342995 3.354672 0.732760 2.012185 15.550706 3.682719 6.404119 16.588532 -2.877408 7.628273 -8.010140 -4.616198 6.801904 6.273976 -4.133663 13.407162 -27.119519 -19.226268 64.552647 -80.766766 -60.310499 3.825508 2.271389 -38.321750 -9.638771 -2.236610 -7.584657 -7.209759 -13.294790 16.163831 -68.621604 -48.180985 52.422225 -10.873250 12.578355 16.195409 -0.729991 -48.087043 7.445598 -31.817650 67.170324 -35.056197 0.191019 -3.080654 -0.711340 0.551516 -0.516031 0.225335 12.714016 -45.518847 -4.098187 25.052423 63.812376 24.699384 -21.521184 -14.057312 0.139991 -0.284643 0.285172 0.022278
-232.034046 60.584047 -72.123758 158.946769 -21.819744 5.012112 2.347021 17.788991 3.961667 0.205286 2.026723 0.467314 0.337468 3.321100 0.711471 2.008007 15.501421 3.682115 6.309904 16.616184 -2.923947 7.533396 -7.983938 -4.642836 6.826790 6.151519 -4.119136 13.428075 -26.915681 -19.157294 56.495229 -80.047929 -52.086237 3.780079 3.814631 -37.627221 -9.620781 -2.412063 -7.610340 -7.436883 -13.289163 16.177007 -68.296105 -47.832762 52.055766 -10.926220 12.581367 16.103814 -0.774217 -48.085234 7.475871 -31.858763 67.200593 -35.051276 0.199358 -3.149087 -0.747044 0.569699 -0.495173 0.232199 12.766968 -45.569626 -4.092155 25.093818 63.926968 24.736738 -21.455344 -14.085664 0.226281 -0.252788 0.280017 -0.032838
-232.034237 60.578385 -72.154832 158.988693 -21.768750 4.965076 2.324751 17.732113 3.972680 0.198755 2.016894 0.461755 0.340769 3.312723 0.724139 2.011448 15.427850 3.670283 6.210360 16.635127 -2.965336 7.431269 -7.967848 -4.662441 6.845032 6.057195 -4.115861 13.479152 -26.707586 -19.106595 49.717385 -79.207260 -45.117133 3.685533 5.132110 -37.112158 -9.603053 -2.576680 -7.638997 -7.679655 -13.303859 16.185952 -67.951404 -47.484587 51.662671 -10.977456 12.576272 16.009873 -0.852567 -48.104351 7.461747 -31.808965 67.233543 -34.946667 0.265683 -3.262733 -0.767566 0.523205 -0.418145 0.222513 12.801446 -45.654972 -4.118908 25.089554 64.001894 24.768223 -21.461624 -14.083215 0.239908 -0.269941 0.257765 -0.033857
-232.034959 60.570235 -72.182142 158.987873 -21.680970 4.932544 2.349056 17.641225 3.991909 0.191772 1.999903 0.453088 0.341621 3.309728 0.733958 2.033078 15.352667 3.662240 6.105353 16.641628 -3.004475 7.322572 -7.965885 -4.678240 6.854204 5.979106 -4.124691 13.335776 -26.442193 -19.016711 44.383890 -78.448242 -39.427961 3.554073 6.139918 -36.807179 -9.590148 -2.735629 -7.670522 -7.928803 -13.337556 16.189217 -67.599200 -47.136216 51.247936 -11.026928 12.566072 15.912085 -0.885147 -48.182684 7.493983 -31.830244 67.251891 -34.943386 0.267762 -3.294061 -0.781800 0.533613 -0.407620 0.225473 12.886096 -45.772637 -4.150601 25.086245 64.077686 24.805740 -21.521490 -14.085934 0.252998 -0.284568 0.239146 -0.034585
